<mxfile host="app.diagrams.net" agent="Mozilla/5.0 (Macintosh; Intel Mac OS X 10_15_7) AppleWebKit/537.36 (KHTML, like Gecko) Chrome/128.0.0.0 Safari/537.36" version="24.7.13">
  <diagram name="Page-1" id="BOdl_zRPQl9ZBfkVWpPf">
    <mxGraphModel dx="1037" dy="573" grid="0" gridSize="10" guides="1" tooltips="1" connect="1" arrows="1" fold="1" page="1" pageScale="1" pageWidth="827" pageHeight="1169" math="0" shadow="0">
      <root>
        <mxCell id="0" />
        <mxCell id="1" parent="0" />
        <mxCell id="rnfZrZRr-QO66VJAXQid-56" style="edgeStyle=orthogonalEdgeStyle;rounded=0;orthogonalLoop=1;jettySize=auto;html=1;entryX=1;entryY=0.75;entryDx=0;entryDy=0;" edge="1" parent="1" source="rnfZrZRr-QO66VJAXQid-36" target="rnfZrZRr-QO66VJAXQid-52">
          <mxGeometry relative="1" as="geometry">
            <Array as="points">
              <mxPoint x="540" y="315" />
              <mxPoint x="540" y="566" />
              <mxPoint x="443" y="566" />
            </Array>
          </mxGeometry>
        </mxCell>
        <mxCell id="rnfZrZRr-QO66VJAXQid-36" value="OP1" style="rounded=1;whiteSpace=wrap;html=1;fillColor=#fad7ac;strokeColor=#b46504;" vertex="1" parent="1">
          <mxGeometry x="440" y="305" width="50" height="20" as="geometry" />
        </mxCell>
        <mxCell id="rnfZrZRr-QO66VJAXQid-1" value="" style="rounded=0;whiteSpace=wrap;html=1;fillColor=#d5e8d4;strokeColor=#82b366;" vertex="1" parent="1">
          <mxGeometry x="280" y="280" width="120" height="160" as="geometry" />
        </mxCell>
        <mxCell id="rnfZrZRr-QO66VJAXQid-2" value="&lt;span style=&quot;text-wrap: wrap;&quot;&gt;TEAM&amp;nbsp;&lt;/span&gt;&lt;div&gt;&lt;span style=&quot;text-wrap: wrap;&quot;&gt;ENDPNT&lt;/span&gt;&lt;/div&gt;" style="text;html=1;align=center;verticalAlign=middle;resizable=0;points=[];autosize=1;strokeColor=none;fillColor=none;" vertex="1" parent="1">
          <mxGeometry x="305" y="240" width="70" height="40" as="geometry" />
        </mxCell>
        <mxCell id="rnfZrZRr-QO66VJAXQid-39" value="" style="edgeStyle=orthogonalEdgeStyle;rounded=0;orthogonalLoop=1;jettySize=auto;html=1;" edge="1" parent="1" source="rnfZrZRr-QO66VJAXQid-3" target="rnfZrZRr-QO66VJAXQid-36">
          <mxGeometry relative="1" as="geometry" />
        </mxCell>
        <mxCell id="rnfZrZRr-QO66VJAXQid-3" value="/complete" style="rounded=1;whiteSpace=wrap;html=1;fillColor=#dae8fc;strokeColor=#6c8ebf;" vertex="1" parent="1">
          <mxGeometry x="295" y="300" width="90" height="30" as="geometry" />
        </mxCell>
        <mxCell id="rnfZrZRr-QO66VJAXQid-43" value="" style="edgeStyle=orthogonalEdgeStyle;rounded=0;orthogonalLoop=1;jettySize=auto;html=1;" edge="1" parent="1" source="rnfZrZRr-QO66VJAXQid-4">
          <mxGeometry relative="1" as="geometry">
            <mxPoint x="440" y="365" as="targetPoint" />
          </mxGeometry>
        </mxCell>
        <mxCell id="rnfZrZRr-QO66VJAXQid-4" value="/reset" style="rounded=1;whiteSpace=wrap;html=1;fillColor=#dae8fc;strokeColor=#6c8ebf;" vertex="1" parent="1">
          <mxGeometry x="295" y="350" width="90" height="30" as="geometry" />
        </mxCell>
        <mxCell id="rnfZrZRr-QO66VJAXQid-5" value="&lt;b&gt;dgx##:PORT&lt;/b&gt;" style="text;html=1;align=center;verticalAlign=middle;resizable=0;points=[];autosize=1;strokeColor=none;fillColor=none;" vertex="1" parent="1">
          <mxGeometry x="290" y="410" width="100" height="30" as="geometry" />
        </mxCell>
        <mxCell id="rnfZrZRr-QO66VJAXQid-53" style="edgeStyle=orthogonalEdgeStyle;rounded=0;orthogonalLoop=1;jettySize=auto;html=1;entryX=1;entryY=0.25;entryDx=0;entryDy=0;exitX=1;exitY=0.5;exitDx=0;exitDy=0;" edge="1" parent="1" source="rnfZrZRr-QO66VJAXQid-40" target="rnfZrZRr-QO66VJAXQid-52">
          <mxGeometry relative="1" as="geometry" />
        </mxCell>
        <mxCell id="rnfZrZRr-QO66VJAXQid-40" value="OP2" style="rounded=1;whiteSpace=wrap;html=1;fillColor=#fad9d5;strokeColor=#ae4132;" vertex="1" parent="1">
          <mxGeometry x="440" y="355" width="50" height="20" as="geometry" />
        </mxCell>
        <mxCell id="rnfZrZRr-QO66VJAXQid-46" value="" style="edgeStyle=orthogonalEdgeStyle;rounded=0;orthogonalLoop=1;jettySize=auto;html=1;" edge="1" parent="1">
          <mxGeometry relative="1" as="geometry">
            <mxPoint x="240" y="314.75" as="sourcePoint" />
            <mxPoint x="295" y="314.75" as="targetPoint" />
          </mxGeometry>
        </mxCell>
        <mxCell id="rnfZrZRr-QO66VJAXQid-49" value="" style="edgeStyle=orthogonalEdgeStyle;rounded=0;orthogonalLoop=1;jettySize=auto;html=1;" edge="1" parent="1">
          <mxGeometry relative="1" as="geometry">
            <mxPoint x="239" y="367" as="sourcePoint" />
            <mxPoint x="294" y="367" as="targetPoint" />
          </mxGeometry>
        </mxCell>
        <mxCell id="rnfZrZRr-QO66VJAXQid-50" value="IP1" style="rounded=1;whiteSpace=wrap;html=1;fillColor=#fad7ac;strokeColor=#b46504;" vertex="1" parent="1">
          <mxGeometry x="190" y="305" width="50" height="20" as="geometry" />
        </mxCell>
        <mxCell id="rnfZrZRr-QO66VJAXQid-51" value="IP2" style="rounded=1;whiteSpace=wrap;html=1;fillColor=#fad9d5;strokeColor=#ae4132;" vertex="1" parent="1">
          <mxGeometry x="190" y="355" width="50" height="20" as="geometry" />
        </mxCell>
        <mxCell id="rnfZrZRr-QO66VJAXQid-57" style="edgeStyle=orthogonalEdgeStyle;rounded=0;orthogonalLoop=1;jettySize=auto;html=1;exitX=0;exitY=0.25;exitDx=0;exitDy=0;entryX=0;entryY=0.5;entryDx=0;entryDy=0;" edge="1" parent="1" source="rnfZrZRr-QO66VJAXQid-52" target="rnfZrZRr-QO66VJAXQid-51">
          <mxGeometry relative="1" as="geometry" />
        </mxCell>
        <mxCell id="rnfZrZRr-QO66VJAXQid-58" style="edgeStyle=orthogonalEdgeStyle;rounded=0;orthogonalLoop=1;jettySize=auto;html=1;exitX=0;exitY=0.75;exitDx=0;exitDy=0;entryX=0;entryY=0.5;entryDx=0;entryDy=0;" edge="1" parent="1" source="rnfZrZRr-QO66VJAXQid-52" target="rnfZrZRr-QO66VJAXQid-50">
          <mxGeometry relative="1" as="geometry">
            <Array as="points">
              <mxPoint x="139" y="569" />
              <mxPoint x="139" y="315" />
            </Array>
          </mxGeometry>
        </mxCell>
        <mxCell id="rnfZrZRr-QO66VJAXQid-63" value="" style="edgeStyle=orthogonalEdgeStyle;rounded=0;orthogonalLoop=1;jettySize=auto;html=1;" edge="1" parent="1" source="rnfZrZRr-QO66VJAXQid-52" target="rnfZrZRr-QO66VJAXQid-62">
          <mxGeometry relative="1" as="geometry" />
        </mxCell>
        <mxCell id="rnfZrZRr-QO66VJAXQid-52" value="" style="rounded=0;whiteSpace=wrap;html=1;fillColor=#bac8d3;strokeColor=#23445d;" vertex="1" parent="1">
          <mxGeometry x="237" y="484" width="206" height="109" as="geometry" />
        </mxCell>
        <mxCell id="rnfZrZRr-QO66VJAXQid-60" value="&lt;font style=&quot;font-size: 10px;&quot;&gt;Query Generator&lt;/font&gt;" style="rounded=1;whiteSpace=wrap;html=1;" vertex="1" parent="1">
          <mxGeometry x="240" y="527.5" width="78" height="22" as="geometry" />
        </mxCell>
        <mxCell id="rnfZrZRr-QO66VJAXQid-61" value="&lt;font style=&quot;font-size: 10px;&quot;&gt;Evaluator&lt;/font&gt;" style="rounded=1;whiteSpace=wrap;html=1;" vertex="1" parent="1">
          <mxGeometry x="360" y="527.5" width="78" height="22" as="geometry" />
        </mxCell>
        <mxCell id="rnfZrZRr-QO66VJAXQid-62" value="&lt;font style=&quot;font-size: 10px;&quot;&gt;SCORING&lt;/font&gt;" style="rounded=0;whiteSpace=wrap;html=1;" vertex="1" parent="1">
          <mxGeometry x="310" y="621" width="60" height="19" as="geometry" />
        </mxCell>
      </root>
    </mxGraphModel>
  </diagram>
</mxfile>
